<svg fill="#000000" xmlns="http://www.w3.org/2000/svg"  viewBox="0 0 512 512" width="64px" height="64px"><path d="M 255.55469 69.009766 A 8 8 0 0 0 250.50977 71.142578 L 154.1543 160.75586 A 8 8 0 0 0 153.76172 172.07812 L 182.96094 203.30469 A 8 8 0 0 0 194.24023 203.70312 L 227 173.36523 L 227 330 A 8 8 0 0 0 235 338 L 277 338 A 8 8 0 0 0 285 330 L 285 173.36719 L 317.74023 203.70508 A 8 8 0 0 0 329.02734 203.29297 L 358.14453 172.06836 A 8 8 0 0 0 357.74414 160.75586 L 261.4082 71.142578 A 8 8 0 0 0 255.55469 69.009766 z M 116 385 C 111.568 385 108 388.568 108 393 L 108 435 C 108 439.432 111.568 443 116 443 L 396 443 C 400.432 443 404 439.432 404 435 L 404 393 C 404 388.568 400.432 385 396 385 L 116 385 z"/></svg>