<svg xmlns="http://www.w3.org/2000/svg" xmlns:xlink="http://www.w3.org/1999/xlink" width="187.795" height="74.786" viewBox="0 0 187.795 74.786">
  <defs>
    <style>
      .cls-1 {
        fill: #fcbf49;
        letter-spacing: 0.132em;
      }

      .cls-1, .cls-2, .cls-7, .cls-8 {
        stroke: #000;
      }

      .cls-1, .cls-2 {
        font-size: 23px;
        font-family: Josefin Sans;
        font-weight: 700;
      }

      .cls-2, .cls-6 {
        fill: #e76f51;
      }

      .cls-2 {
        letter-spacing: 0.11em;
      }

      .cls-3 {
        fill: #fff;
        stroke: #707070;
      }

      .cls-4, .cls-5 {
        fill: #f77f00;
        stroke: #fff;
      }

      .cls-5, .cls-8 {
        stroke-linecap: round;
      }

      .cls-7, .cls-8 {
        fill: none;
      }

      .cls-9 {
        filter: url(#Path_892);
      }

      .cls-10 {
        filter: url(#NavBar_CUBE_WHITE_Background);
      }

      .cls-11 {
        filter: url(#STUDIO);
      }

      .cls-12 {
        filter: url(#NOMAD);
      }
    </style>
    <filter id="NOMAD" x="67.795" y="13.756" width="120" height="32" filterUnits="userSpaceOnUse">
      <feOffset dy="1" input="SourceAlpha"/>
      <feGaussianBlur stdDeviation="1" result="blur"/>
      <feFlood flood-color="#fff"/>
      <feComposite operator="in" in2="blur"/>
      <feComposite in="SourceGraphic"/>
    </filter>
    <filter id="STUDIO" x="70.795" y="36.756" width="117" height="31" filterUnits="userSpaceOnUse">
      <feOffset dy="1" input="SourceAlpha"/>
      <feGaussianBlur stdDeviation="1" result="blur-2"/>
      <feFlood flood-color="#fff"/>
      <feComposite operator="in" in2="blur-2"/>
      <feComposite in="SourceGraphic"/>
    </filter>
    <filter id="NavBar_CUBE_WHITE_Background" x="0" y="0" width="69.416" height="74.786" filterUnits="userSpaceOnUse">
      <feOffset dy="-2" input="SourceAlpha"/>
      <feGaussianBlur stdDeviation="3" result="blur-3"/>
      <feFlood flood-color="#fff"/>
      <feComposite operator="in" in2="blur-3"/>
      <feComposite in="SourceGraphic"/>
    </filter>
    <filter id="Path_892" x="9.026" y="8.796" width="52.846" height="60.029" filterUnits="userSpaceOnUse">
      <feOffset input="SourceAlpha"/>
      <feGaussianBlur stdDeviation="2" result="blur-4"/>
      <feFlood/>
      <feComposite operator="in" in2="blur-4"/>
      <feComposite in="SourceGraphic"/>
    </filter>
  </defs>
  <g id="LOGO_4_BLACK_BCKGRND" data-name="LOGO 4 BLACK BCKGRND" transform="translate(9.171 10.918)">
    <g class="cls-12" transform="matrix(1, 0, 0, 1, -9.17, -10.92)">
      <text id="NOMAD-2" data-name="NOMAD" class="cls-1" transform="translate(71.79 17.76)"><tspan x="0" y="17">NOMAD</tspan></text>
    </g>
    <g class="cls-11" transform="matrix(1, 0, 0, 1, -9.17, -10.92)">
      <text id="STUDIO-2" data-name="STUDIO" class="cls-2" transform="translate(74.79 39.76)"><tspan x="0" y="17">STUDIO</tspan></text>
    </g>
    <g id="Group_1049" data-name="Group 1049" transform="translate(-65.376 -12.481)">
      <g class="cls-10" transform="matrix(1, 0, 0, 1, 56.21, 1.56)">
        <path id="NavBar_CUBE_WHITE_Background-2" data-name="NavBar CUBE WHITE Background" class="cls-3" d="M-3676.4,414.481l24.676,16.5v22.47L-3676.4,470.07l-25.74-16.617v-22.47Z" transform="translate(3711.64 -402.88)"/>
      </g>
      <g id="Group_786" data-name="Group 786" transform="translate(65.376 12.481)">
        <g id="Cube_internal" data-name="Cube internal" transform="translate(6.356 4.48)">
          <g class="cls-9" transform="matrix(1, 0, 0, 1, -15.53, -15.4)">
            <path id="Path_892-2" data-name="Path 892" class="cls-4" d="M49.407,114.449l19.9,13.394v20.526L49.557,161.277,29.464,147.966V127.843Z" transform="translate(-13.94 -99.05)"/>
          </g>
          <path id="Path_893" data-name="Path 893" class="cls-5" d="M69.794,114l19.727,12.76L109.313,114" transform="translate(-69.683 -100.359)"/>
          <path id="Path_894" data-name="Path 894" class="cls-4" d="M-.342-2.583V17.959" transform="translate(20.123 28.869)"/>
        </g>
        <g id="Group_784" data-name="Group 784" transform="translate(25.19 17.085)">
          <path id="Path_877" data-name="Path 877" class="cls-6" d="M139.643,188.051a3.59,3.59,0,0,1-.861-.2c-.526-.167-.857-.5-.857-.868l.3-22.256a.941.941,0,0,1,.646-.788l23.35-15a2.4,2.4,0,0,1,1.629-.079c.523.166.855.5.855.868l-.211,21.027a.939.939,0,0,1-.644.786l-22.894,15.813C140.683,187.479,139.968,188.051,139.643,188.051Zm1.713-22.823-.3,18.956,20.307-13.923.211-18.625Zm0,0" transform="translate(-137.925 -148.754)"/>
        </g>
        <g id="Group_785" data-name="Group 785" transform="translate(0.085 17.197)">
          <path id="Path_877-2" data-name="Path 877" class="cls-6" d="M162.787,187.986c.242,0-.822-.274.7.313a1.49,1.49,0,0,0,.9-1.612l-.281-21.9a.941.941,0,0,0-.646-.787L139.466,149.1a2.4,2.4,0,0,0-1.629-.079c-.523.166-.855.5-.855.868l.211,20.469a.939.939,0,0,0,.644.786l23.437,15.978C161.547,187.249,162.462,187.986,162.787,187.986Zm-1.811-22.706.3,18.956-20.951-14.37-.211-18.066Zm0,0" transform="translate(-136.982 -148.918)"/>
        </g>
        <g id="Group_783" data-name="Group 783" transform="translate(0 0)">
          <path id="Path_879" data-name="Path 879" class="cls-6" d="M127.342,164.916a1.708,1.708,0,0,1-.951-.289l-24.517-15.9a1.5,1.5,0,0,1-.008-2.517l24.722-16.443a1.708,1.708,0,0,1,1.924,0l24.147,16.441a1.5,1.5,0,0,1-.01,2.512L128.3,164.622A1.679,1.679,0,0,1,127.342,164.916Zm-21.716-17.458,21.713,14,21.569-14-21.367-14.515Zm0,0" transform="translate(-101.19 -129.475)"/>
        </g>
        <g id="Cube_out" data-name="Cube out" transform="translate(0.247 0.002)">
          <g id="Group_782" data-name="Group 782">
            <path id="Path_1249" data-name="Path 1249" class="cls-7" d="M-1665.894,417.609l26.064-17.126,25.453,17.126V439.63l-25.276,17.393-25.962-17.519Z" transform="translate(1665.894 -400.483)"/>
            <path id="Path_1250" data-name="Path 1250" class="cls-8" d="M-1664.244,419.815l25.229,16.318,25.255-16.318" transform="translate(1664.875 -402.448)"/>
            <path id="Path_1251" data-name="Path 1251" class="cls-8" d="M.528,3.072V25.608" transform="translate(25.491 30.48)"/>
          </g>
        </g>
      </g>
    </g>
  </g>
</svg>
